<svg width="12" height="12" viewBox="0 0 12 12" fill="none" xmlns="http://www.w3.org/2000/svg">
<g clip-path="url(#clip0_251_470)">
<path d="M2.1721 2.79346H10.3334C10.8456 2.79346 11.2608 3.20662 11.2608 3.71629L11.6318 10.7298C11.6318 11.2395 11.2165 11.6527 10.7043 11.6527H1.80114C1.28894 11.6527 0.873718 11.2395 0.873718 10.7298L1.24469 3.71629C1.24469 3.20662 1.6599 2.79346 2.1721 2.79346Z" fill="#FFC63A"/>
<path d="M3.50247 4.81259V2.19131C3.50247 1.1619 4.33112 0.327392 5.35332 0.327393H7.03755C8.05974 0.327393 8.88839 1.1619 8.88839 2.19131V4.81259" stroke="white" stroke-width="1.56575" stroke-linecap="round"/>
<path d="M3.50247 2.54635V2.19131C3.50247 1.1619 4.33112 0.327392 5.35332 0.327393H7.03755C8.05974 0.327393 8.88839 1.1619 8.88839 2.19131V2.54635" stroke="#FFC63A" stroke-width="1.56575" stroke-linecap="round"/>
</g>
<defs>
<clipPath id="clip0_251_470">
<rect width="10.7581" height="11.3253" fill="white" transform="translate(0.873535 0.327393)"/>
</clipPath>
</defs>
</svg>
