<svg width="20" height="20" viewBox="0 0 20 20" fill="none" xmlns="http://www.w3.org/2000/svg">
<path d="M15.4584 0C17.4997 1.68187e-06 19.1827 1.6 19.2865 3.63867L19.9154 15.9717C20.027 18.1625 18.28 20 16.0863 20H3.91251C1.80797 19.9998 0.110571 18.3071 0.0794983 16.2275L0.082428 16.0244L0.539459 3.69141C0.615804 1.63102 2.30775 8.26156e-05 4.36954 0H15.4584ZM4.36954 1.5C3.11455 1.50008 2.08396 2.49293 2.03751 3.74707L1.58145 16.0801C1.53251 17.4016 2.59016 18.4998 3.91251 18.5H16.0863C17.4216 18.5 18.4853 17.3814 18.4174 16.0479L17.7885 3.71484C17.7253 2.47391 16.7009 1.5 15.4584 1.5H4.36954ZM14.2875 3.76953C14.7014 3.76991 15.0375 4.10555 15.0375 4.51953C15.0374 6.05349 14.4293 7.25052 13.476 8.0498C12.5397 8.83469 11.3163 9.19983 10.1166 9.19336C7.73349 9.18027 5.14914 7.66134 4.92813 4.57324C4.89863 4.16017 5.20944 3.80114 5.62247 3.77148C6.03535 3.74223 6.39458 4.05295 6.42422 4.46582C6.57422 6.56192 8.29505 7.68318 10.1244 7.69336C11.0308 7.69824 11.892 7.42026 12.5121 6.90039C13.1151 6.39485 13.5374 5.62372 13.5375 4.51953C13.5375 4.10532 13.8733 3.76953 14.2875 3.76953Z" fill="black"/>
</svg>
