<svg width="17" height="16" viewBox="0 0 17 16" fill="none" xmlns="http://www.w3.org/2000/svg">
<path d="M8.49706 0.0119629C6.96542 0.0119629 5.46817 0.466148 4.19465 1.31708C2.92114 2.16802 1.92855 3.37749 1.34242 4.79254C0.756285 6.2076 0.602926 7.76468 0.901734 9.2669C1.20054 10.7691 1.9381 12.149 3.02114 13.232C4.10417 14.3151 5.48404 15.0526 6.98626 15.3514C8.48847 15.6502 10.0456 15.4969 11.4606 14.9107C12.8757 14.3246 14.0851 13.332 14.9361 12.0585C15.787 10.785 16.2412 9.28774 16.2412 7.75609C16.2412 6.73912 16.0409 5.7321 15.6517 4.79254C15.2625 3.85298 14.6921 2.99927 13.973 2.28017C13.2539 1.56106 12.4002 0.990628 11.4606 0.60145C10.5211 0.212271 9.51404 0.0119629 8.49706 0.0119629ZM8.49706 13.9514C7.27175 13.9514 6.07395 13.588 5.05514 12.9073C4.03632 12.2265 3.24226 11.259 2.77335 10.1269C2.30444 8.99489 2.18175 7.74922 2.4208 6.54745C2.65985 5.34568 3.24989 4.24178 4.11632 3.37535C4.98275 2.50892 6.08665 1.91888 7.28842 1.67983C8.49019 1.44078 9.73586 1.56347 10.8679 2.03238C11.9999 2.50129 12.9675 3.29535 13.6483 4.31417C14.329 5.33298 14.6924 6.53078 14.6924 7.75609C14.6924 9.39919 14.0396 10.975 12.8778 12.1368C11.716 13.2987 10.1402 13.9514 8.49706 13.9514Z" fill="#181725"/>
<path d="M8.66503 3.10973C7.94618 3.10973 7.25677 3.3953 6.74846 3.9036C6.24015 4.41191 5.95459 5.10132 5.95459 5.82018C5.95459 6.02556 6.03618 6.22254 6.18141 6.36777C6.32664 6.513 6.52362 6.59459 6.729 6.59459C6.93439 6.59459 7.13136 6.513 7.2766 6.36777C7.42183 6.22254 7.50342 6.02556 7.50342 5.82018C7.50342 5.59043 7.57154 5.36584 7.69918 5.17482C7.82682 4.98379 8.00824 4.8349 8.2205 4.74698C8.43276 4.65906 8.66632 4.63606 8.89166 4.68088C9.11699 4.7257 9.32397 4.83633 9.48642 4.99879C9.64888 5.16124 9.75951 5.36822 9.80433 5.59356C9.84916 5.81889 9.82615 6.05245 9.73823 6.26471C9.65031 6.47697 9.50142 6.65839 9.3104 6.78603C9.11937 6.91367 8.89478 6.9818 8.66503 6.9818C8.45965 6.9818 8.26267 7.06339 8.11744 7.20862C7.97221 7.35385 7.89062 7.55082 7.89062 7.75621V9.30504C7.89062 9.51042 7.97221 9.7074 8.11744 9.85263C8.26267 9.99786 8.45965 10.0794 8.66503 10.0794C8.87042 10.0794 9.0674 9.99786 9.21263 9.85263C9.35786 9.7074 9.43945 9.51042 9.43945 9.30504V8.40672C10.0653 8.22396 10.6039 7.82115 10.9561 7.27254C11.3083 6.72393 11.4504 6.06649 11.3561 5.42141C11.2618 4.77632 10.9375 4.18706 10.4429 3.76224C9.94839 3.33743 9.31697 3.10569 8.66503 3.10973Z" fill="#181725"/>
<path d="M8.66504 12.4026C9.09273 12.4026 9.43945 12.0559 9.43945 11.6282C9.43945 11.2005 9.09273 10.8538 8.66504 10.8538C8.23734 10.8538 7.89062 11.2005 7.89062 11.6282C7.89062 12.0559 8.23734 12.4026 8.66504 12.4026Z" fill="#181725"/>
</svg>
