<svg width="10" height="10" viewBox="0 0 10 10" fill="none" xmlns="http://www.w3.org/2000/svg">
<path d="M4.99095 8.02269C4.77669 7.90271 4.51547 7.90271 4.30121 8.02269L2.66289 8.94009C2.13732 9.23439 1.50834 8.77751 1.62569 8.18669L1.99174 6.34373C2.03956 6.10301 1.9589 5.85473 1.77875 5.68807L0.399553 4.41216C-0.04254 4.00318 0.197688 3.26401 0.795753 3.19307L2.66076 2.97186C2.90456 2.94295 3.11583 2.78943 3.21863 2.56648L4.00507 0.860851C4.25732 0.313779 5.03483 0.313782 5.28708 0.860855L6.0735 2.56647C6.1763 2.78942 6.38756 2.94295 6.63137 2.97186L8.49637 3.19307C9.09443 3.26401 9.33466 4.00318 8.89257 4.41216L7.5134 5.68807C7.33324 5.85473 7.25259 6.103 7.3004 6.34372L7.66645 8.1867C7.7838 8.77751 7.15482 9.23438 6.62925 8.94008L4.99095 8.02269Z" fill="#F5B30E"/>
</svg>
