<svg width="21" height="19" viewBox="0 0 21 19" fill="none" xmlns="http://www.w3.org/2000/svg">
<path d="M5.88033 6.48792H3.33407C2.98269 6.48792 2.69751 6.77182 2.69751 7.12448C2.69751 7.47586 2.98269 7.76104 3.33407 7.76104H3.97064C3.97064 11.2762 6.8199 14.1267 10.3363 14.1267C13.8514 14.1267 16.7019 11.2762 16.7019 7.76104H17.3385C17.6886 7.76104 17.9751 7.47586 17.9751 7.12448C17.9751 6.7731 17.6886 6.48792 17.3385 6.48792H14.7922C14.4409 6.48792 14.1557 6.7731 14.1557 7.12448C14.1557 7.47586 14.4409 7.76104 14.7922 7.76104H15.4288C15.4288 10.5721 13.1486 12.8536 10.3363 12.8536C7.52394 12.8536 5.24377 10.5721 5.24377 7.76104H5.88033C6.23044 7.76104 6.5169 7.47586 6.5169 7.12448C6.5169 6.7731 6.23044 6.48792 5.88033 6.48792Z" fill="#282828"/>
<path d="M19.6739 3.09271L19.3138 3.45283L19.6739 3.09271ZM1.00031 3.09274L1.36043 3.45286L1.00031 3.09274ZM17.6248 1.04361L17.2647 1.40372L17.6248 1.04361ZM3.17375 0.919301L2.81363 0.559183L3.17375 0.919301ZM4.07404 0.546387V1.05567H16.4244V0.546387V0.0371029H4.07404V0.546387ZM1.00031 3.09274L1.36043 3.45286L3.53387 1.27942L3.17375 0.919301L2.81363 0.559183L0.640195 2.73262L1.00031 3.09274ZM1.00038 15.8248H1.50967V3.09285H1.00038H0.491098V15.8248H1.00038ZM17.9765 17.5225V17.0132H2.69799V17.5225V18.0317H17.9765V17.5225ZM19.6741 3.09289H19.1648V15.8248H19.6741H20.1834V3.09289H19.6741ZM17.6248 1.04361L17.2647 1.40372L19.3138 3.45283L19.6739 3.09271L20.034 2.73259L17.9849 0.683488L17.6248 1.04361ZM19.674 3.09275V2.58347C19.8088 2.58347 19.9384 2.63695 20.034 2.73259L19.6739 3.09271L19.3138 3.45283C19.4095 3.54853 19.5391 3.60204 19.674 3.60204V3.09275ZM19.6741 3.09289H20.1834C20.1834 2.81154 19.9553 2.58347 19.674 2.58347V3.09275V3.60204C19.3928 3.60204 19.1648 3.37408 19.1648 3.09289H19.6741ZM17.9765 17.5225V18.0317C19.1953 18.0317 20.1834 17.0437 20.1834 15.8248H19.6741H19.1648C19.1648 16.4811 18.6328 17.0132 17.9765 17.0132V17.5225ZM1.00038 15.8248H0.491098C0.491098 17.0437 1.47916 18.0317 2.69799 18.0317V17.5225V17.0132C2.0417 17.0132 1.50967 16.4811 1.50967 15.8248H1.00038ZM1.00034 3.09281V3.60209C0.715321 3.60209 0.491098 3.37031 0.491098 3.09285H1.00038H1.50967C1.50967 2.81534 1.28541 2.58352 1.00034 2.58352V3.09281ZM1.00031 3.09274L0.640195 2.73262C0.319339 3.05348 0.546582 3.60209 1.00034 3.60209V3.09281V2.58352C1.45403 2.58352 1.68124 3.13205 1.36043 3.45286L1.00031 3.09274ZM16.4244 0.546387V1.05567C16.7396 1.05567 17.0418 1.18087 17.2647 1.40372L17.6248 1.04361L17.9849 0.683488C17.571 0.269615 17.0097 0.0371029 16.4244 0.0371029V0.546387ZM4.07404 0.546387V0.0371029C3.6013 0.0371029 3.14791 0.224901 2.81363 0.559183L3.17375 0.919301L3.53387 1.27942C3.67713 1.13616 3.87144 1.05567 4.07404 1.05567V0.546387Z" fill="#282828"/>
</svg>
