<svg width="12" height="11" viewBox="0 0 12 11" fill="none" xmlns="http://www.w3.org/2000/svg">
<path d="M7.25058 0.600096C7.40072 0.455959 7.64413 0.455957 7.7943 0.600096L8.79791 1.5641C8.94799 1.70833 8.948 1.94212 8.79791 2.08636C8.53305 2.34077 8.53258 2.75523 8.79721 3.00978C9.06218 3.2643 9.4943 3.26429 9.75927 3.00978C9.90942 2.86563 10.1528 2.8656 10.303 3.00978L11.3066 3.97379C11.4566 4.11801 11.4567 4.35181 11.3066 4.49604L5.16025 10.3998C5.01011 10.5439 4.7667 10.544 4.61653 10.3998L3.61292 9.43583C3.46282 9.29159 3.46287 9.0578 3.61292 8.91357C3.8779 8.65905 3.8779 8.24399 3.61292 7.98947C3.34792 7.73529 2.91641 7.73575 2.65156 7.99015C2.50141 8.13427 2.25801 8.13432 2.10785 7.99015L1.10424 7.02614C0.954182 6.88191 0.954203 6.6481 1.10424 6.50389L7.25058 0.600096ZM2.41703 7.24262C2.96963 6.94121 3.68566 7.01514 4.15663 7.46722C4.62753 7.91954 4.70416 8.60726 4.39046 9.13817L4.88839 9.61645L6.16316 8.39199L5.68213 7.92994C5.53215 7.78569 5.53272 7.55119 5.68283 7.40701C5.83296 7.26313 6.07645 7.26303 6.22654 7.40701L6.70757 7.86906L10.491 4.23492L9.99309 3.75663C9.44039 4.05795 8.72439 3.98434 8.25349 3.53203C7.78284 3.07965 7.7059 2.39189 8.01967 1.86109L7.52244 1.38348L3.73899 5.01762L4.22002 5.47967C4.36989 5.62382 4.3698 5.85772 4.22002 6.00193C4.06992 6.1461 3.8258 6.14667 3.6756 6.0026L3.19457 5.54055L1.9198 6.76501L2.41703 7.24262Z" fill="#181725" stroke="#181725" stroke-width="0.232324"/>
<path d="M4.42797 6.20262C4.57809 6.05841 4.82154 6.05843 4.97168 6.20262L5.47313 6.68428C5.62327 6.8285 5.62327 7.06233 5.47313 7.20654C5.323 7.35071 5.07956 7.35075 4.92942 7.20654L4.42797 6.72487C4.27789 6.58067 4.27787 6.34684 4.42797 6.20262Z" fill="#181725" stroke="#181725" stroke-width="0.232324"/>
</svg>
