<svg width="12" height="12" viewBox="0 0 12 12" fill="none" xmlns="http://www.w3.org/2000/svg">
<path d="M5.99992 2.06104L5.46217 1.50829C4.19992 0.210786 1.88542 0.658537 1.04992 2.28979C0.657671 3.05704 0.569171 4.16479 1.28542 5.57854C1.97542 6.93979 3.41092 8.57029 5.99992 10.3463C8.58892 8.57029 10.0237 6.93979 10.7144 5.57854C11.4307 4.16404 11.3429 3.05704 10.9499 2.28979C10.1144 0.658537 7.79992 0.210036 6.53767 1.50754L5.99992 2.06104ZM5.99992 11.25C-5.49983 3.65104 2.45917 -2.27996 5.86792 0.857286C5.91292 0.898786 5.95692 0.941536 5.99992 0.985536C6.04217 0.941259 6.08621 0.898724 6.13192 0.858037C9.53992 -2.28146 17.4997 3.65029 5.99992 11.25Z" fill="#4C4C4C"/>
</svg>
