<svg width="16" height="13" viewBox="0 0 16 13" fill="none" xmlns="http://www.w3.org/2000/svg">
<path d="M12.1279 0.265259C13.8095 0.350273 15.1464 1.74117 15.1464 3.44397L15.1425 3.60706C15.0575 5.28863 13.6675 6.62548 11.9648 6.62561L11.8007 6.6217C10.2798 6.54449 9.0409 5.39956 8.8183 3.92151H0.826111V2.96643H8.8183C9.04874 1.43544 10.3696 0.261445 11.9648 0.261353L12.1279 0.265259ZM11.9648 1.21643C10.7346 1.21653 9.73724 2.21373 9.73724 3.44397C9.73738 4.67409 10.7347 5.67141 11.9648 5.67151C13.1949 5.67137 14.1922 4.67407 14.1923 3.44397C14.1923 2.21375 13.195 1.21657 11.9648 1.21643Z" fill="black"/>
<path d="M3.84485 6.62952C2.1632 6.71453 0.826325 8.10546 0.826294 9.80823L0.8302 9.97131C0.915222 11.6529 2.30526 12.9897 4.00793 12.9899L4.172 12.986C5.69298 12.9087 6.93184 11.7638 7.15442 10.2858H15.1466V9.33069H7.15442C6.92395 7.79973 5.60308 6.6257 4.00793 6.62561L3.84485 6.62952ZM4.00793 7.58069C5.23813 7.58079 6.23544 8.57802 6.23547 9.80823C6.23534 11.0384 5.23807 12.0357 4.00793 12.0358C2.77783 12.0356 1.78053 11.0383 1.7804 9.80823C1.78043 8.57804 2.77777 7.58082 4.00793 7.58069Z" fill="black"/>
</svg>
