<svg width="7" height="8" viewBox="0 0 7 8" fill="none" xmlns="http://www.w3.org/2000/svg">
<path d="M6.55437 2.9145C6.18244 1.27805 4.75497 0.54129 3.50107 0.54129C3.50107 0.54129 3.50107 0.54129 3.49753 0.54129C2.24716 0.54129 0.816149 1.27451 0.444227 2.91096C0.0298006 4.73869 1.14911 6.28659 2.16215 7.26067C2.53761 7.62197 3.01934 7.80261 3.50107 7.80261C3.98279 7.80261 4.46452 7.62197 4.83644 7.26067C5.84949 6.28659 6.96879 4.74223 6.55437 2.9145ZM3.50107 4.6891C2.88474 4.6891 2.3853 4.18966 2.3853 3.57334C2.3853 2.95701 2.88474 2.45757 3.50107 2.45757C4.11739 2.45757 4.61683 2.95701 4.61683 3.57334C4.61683 4.18966 4.11739 4.6891 3.50107 4.6891Z" fill="black"/>
</svg>
