<svg width="10" height="11" viewBox="0 0 10 11" fill="none" xmlns="http://www.w3.org/2000/svg">
<path d="M5.00012 1.125C4.6686 1.125 4.35065 1.2567 4.11623 1.49112C3.88181 1.72554 3.75012 2.04348 3.75012 2.375V3.625H3.12512V2.375C3.12512 1.87772 3.32266 1.40081 3.67429 1.04917C4.02592 0.697544 4.50284 0.5 5.00012 0.5C5.4974 0.5 5.97431 0.697544 6.32594 1.04917C6.67757 1.40081 6.87512 1.87772 6.87512 2.375V3.625H6.25012V2.375C6.25012 2.04348 6.11842 1.72554 5.884 1.49112C5.64958 1.2567 5.33164 1.125 5.00012 1.125ZM3.12512 3.625H2.10012C1.87566 3.62505 1.65868 3.70563 1.48859 3.85209C1.31851 3.99854 1.20661 4.20117 1.17324 4.42313L0.531368 8.70625C0.49811 8.92849 0.51318 9.15529 0.575549 9.37117C0.637918 9.58706 0.746119 9.78695 0.892771 9.95721C1.03942 10.1275 1.22107 10.2641 1.42533 10.3578C1.62959 10.4514 1.85165 10.5 2.07637 10.5H7.92324C8.14801 10.5 8.37014 10.4516 8.57448 10.358C8.77881 10.2643 8.96054 10.1277 9.10726 9.95745C9.25398 9.78718 9.36224 9.58725 9.42464 9.37132C9.48705 9.15539 9.50213 8.92854 9.46887 8.70625L8.82637 4.42313C8.79301 4.20127 8.68121 3.99873 8.51126 3.85229C8.3413 3.70584 8.12446 3.6252 7.90012 3.625H6.87512V4.5625C6.87512 4.64538 6.84219 4.72487 6.78359 4.78347C6.72498 4.84208 6.6455 4.875 6.56262 4.875C6.47974 4.875 6.40025 4.84208 6.34165 4.78347C6.28304 4.72487 6.25012 4.64538 6.25012 4.5625V3.625H3.75012V4.5625C3.75012 4.64538 3.71719 4.72487 3.65859 4.78347C3.59998 4.84208 3.5205 4.875 3.43762 4.875C3.35474 4.875 3.27525 4.84208 3.21665 4.78347C3.15804 4.72487 3.12512 4.64538 3.12512 4.5625V3.625Z" fill="black"/>
</svg>
