<svg width="8" height="11" viewBox="0 0 8 11" fill="none" xmlns="http://www.w3.org/2000/svg">
<path d="M6.5 0.5H1.5C1.16848 0.5 0.850537 0.631696 0.616116 0.866117C0.381696 1.10054 0.25 1.41848 0.25 1.75V9.25C0.25 9.58152 0.381696 9.89946 0.616116 10.1339C0.850537 10.3683 1.16848 10.5 1.5 10.5H6.5C6.83152 10.5 7.14946 10.3683 7.38388 10.1339C7.6183 9.89946 7.75 9.58152 7.75 9.25V1.75C7.75 1.41848 7.6183 1.10054 7.38388 0.866117C7.14946 0.631696 6.83152 0.5 6.5 0.5ZM2.125 3H5.875C5.95788 3 6.03737 3.03292 6.09597 3.09153C6.15458 3.15013 6.1875 3.22962 6.1875 3.3125C6.1875 3.39538 6.15458 3.47487 6.09597 3.53347C6.03737 3.59208 5.95788 3.625 5.875 3.625H2.125C2.04212 3.625 1.96263 3.59208 1.90403 3.53347C1.84542 3.47487 1.8125 3.39538 1.8125 3.3125C1.8125 3.22962 1.84542 3.15013 1.90403 3.09153C1.96263 3.03292 2.04212 3 2.125 3ZM1.8125 4.5625C1.8125 4.47962 1.84542 4.40013 1.90403 4.34153C1.96263 4.28292 2.04212 4.25 2.125 4.25H5.875C5.95788 4.25 6.03737 4.28292 6.09597 4.34153C6.15458 4.40013 6.1875 4.47962 6.1875 4.5625C6.1875 4.64538 6.15458 4.72487 6.09597 4.78347C6.03737 4.84208 5.95788 4.875 5.875 4.875H2.125C2.04212 4.875 1.96263 4.84208 1.90403 4.78347C1.84542 4.72487 1.8125 4.64538 1.8125 4.5625ZM2.125 5.5H5.875C5.95788 5.5 6.03737 5.53292 6.09597 5.59153C6.15458 5.65013 6.1875 5.72962 6.1875 5.8125C6.1875 5.89538 6.15458 5.97487 6.09597 6.03347C6.03737 6.09208 5.95788 6.125 5.875 6.125H2.125C2.04212 6.125 1.96263 6.09208 1.90403 6.03347C1.84542 5.97487 1.8125 5.89538 1.8125 5.8125C1.8125 5.72962 1.84542 5.65013 1.90403 5.59153C1.96263 5.53292 2.04212 5.5 2.125 5.5ZM2.125 6.75H4C4.08288 6.75 4.16237 6.78292 4.22097 6.84153C4.27958 6.90013 4.3125 6.97962 4.3125 7.0625C4.3125 7.14538 4.27958 7.22487 4.22097 7.28347C4.16237 7.34208 4.08288 7.375 4 7.375H2.125C2.04212 7.375 1.96263 7.34208 1.90403 7.28347C1.84542 7.22487 1.8125 7.14538 1.8125 7.0625C1.8125 6.97962 1.84542 6.90013 1.90403 6.84153C1.96263 6.78292 2.04212 6.75 2.125 6.75Z" fill="black"/>
</svg>
