<svg width="8" height="11" viewBox="0 0 8 11" fill="none" xmlns="http://www.w3.org/2000/svg">
<path d="M3.5 8.46905C1.52684 8.223 0 6.5398 0 4.5C0 2.29086 1.79086 0.5 4 0.5C6.20915 0.5 8 2.29086 8 4.5C8 6.5398 6.47315 8.223 4.5 8.46905V9.5058C6.47315 9.55195 8 9.86755 8 10.25C8 10.6642 6.20915 11 4 11C1.79086 11 0 10.6642 0 10.25C0 9.86755 1.52684 9.55195 3.5 9.5058V8.46905ZM4 5.5C4.5523 5.5 5 5.0523 5 4.5C5 3.94772 4.5523 3.5 4 3.5C3.4477 3.5 3 3.94772 3 4.5C3 5.0523 3.4477 5.5 4 5.5Z" fill="#FFC63A"/>
</svg>
