<svg width="205" height="149" viewBox="0 0 205 149" fill="none" xmlns="http://www.w3.org/2000/svg">
<path d="M104.589 141.578C107.588 141.578 110.02 139.147 110.02 136.148C110.02 133.149 107.588 130.717 104.589 130.717C101.59 130.717 99.1587 133.149 99.1587 136.148C99.1587 139.147 101.59 141.578 104.589 141.578Z" fill="#FFC63A"/>
<path d="M121.609 141.6C124.608 141.6 127.04 139.169 127.04 136.17C127.04 133.171 124.608 130.739 121.609 130.739C118.61 130.739 116.179 133.171 116.179 136.17C116.179 139.169 118.61 141.6 121.609 141.6Z" fill="#FFC63A"/>
<path d="M204.1 99.1797C184.837 88.3136 164.567 101.975 148.364 111.901C135.183 119.977 117.677 128.58 102.001 123.046C91.8839 119.475 85.6268 110.32 81.3123 100.973C76.4192 90.37 70.3894 80.2635 61.3524 72.6732C60.5257 71.9705 56.3043 69.666 56.3043 68.5758V67.3564C62.0551 67.2996 67.6871 67.2376 73.2622 65.5118C77.1375 64.3182 80.8473 62.2308 83.3016 59.0014C83.6426 58.5571 85.2186 56.418 86.1176 53.1731C88.0139 46.3372 86.1486 37.2124 80.3875 32.6706C74.7193 28.2064 65.641 27.9326 58.7741 26.863C50.1298 25.5196 41.4441 24.3829 32.8825 22.5693C25.8606 21.0812 18.8904 18.9265 12.6074 15.3924C6.32435 11.8582 2.02028 7.14073 0 0C0.490861 1.72576 3.53936 3.7512 4.92411 4.74326C6.90305 6.16417 8.54614 7.10973 10.8764 7.90544C16.1106 9.69321 21.4429 11.1813 26.8165 12.473C34.7943 14.3848 42.8702 15.8574 50.9617 17.206C58.6759 18.4925 66.602 19.2056 74.1561 21.2672C79.9638 22.8483 85.6268 25.4266 89.9205 29.6428C100.812 40.3436 98.0533 60.5877 85.0481 68.4673C81.7722 70.4566 78.5274 70.5186 75.05 71.5055C75.7992 71.2936 79.3696 75.1843 79.9844 75.7785C81.5604 77.3131 83.0381 78.951 84.3764 80.7026C89.5381 87.461 92.6383 95.5886 98.508 101.825C100.657 104.114 103.034 105.974 105.576 107.385C115.554 112.924 126.787 110.077 136.547 105.582C146.581 100.962 155.861 95.816 166.676 92.9897C173.971 91.0831 181.422 89.1455 188.981 90.8144C194.686 92.0751 200.002 95.0203 204.1 99.1797Z" fill="url(#paint0_linear_120_80)"/>
<path d="M51.318 100.791C51.2715 101.287 51.2249 101.783 51.1733 102.274C50.4706 109.187 45.748 116.359 39.2531 119.071C32.4844 121.898 24.1811 120.921 18.3838 116.374C24.2018 117.273 30.8051 116.71 34.9335 112.514C38.1267 109.27 38.9224 104.449 39.2324 100.078C39.6303 94.425 39.3048 88.638 39.3048 82.9647C39.3048 71.122 39.3048 59.2845 39.4495 47.4419C39.4805 44.7085 39.5115 41.9442 38.9586 39.2677C38.0699 34.9895 35.2281 31.1401 31.3218 29.125C35.3262 29.9259 39.4805 30.0499 43.3608 31.3261C48.1868 32.9175 50.9511 36.8754 51.8346 41.7892C52.5994 46.0519 51.752 50.3405 51.8656 54.6188C52.0207 60.5246 52.3255 66.4252 52.3668 72.3362C52.434 81.8021 52.2067 91.3506 51.318 100.785V100.791Z" fill="url(#paint1_linear_120_80)"/>
<path d="M148.982 43.6514C148.55 47.4146 147.581 50.547 146.633 52.9081C145.675 54.9721 144.805 55.9885 144.805 55.9885C141.742 60.1842 137.882 62.5349 134.898 61.6488C134.413 61.5029 133.882 61.2527 133.34 60.8201C133.538 59.6369 133.736 59.0219 133.736 59.0219H133.695C133.736 58.8603 133.778 58.6935 133.825 58.5268C133.893 58.2609 133.971 57.9899 134.054 57.7137C135.085 54.2163 136.95 49.9424 140.143 44.8241L139.929 45.0378C139.888 45.0743 139.846 45.1212 139.799 45.1681C139.747 45.2203 139.695 45.2724 139.638 45.3349C138.455 46.5389 136.632 48.5977 134.898 51.5008C134.84 51.5947 134.778 51.6937 134.721 51.7927C133.814 53.2938 132.955 54.9825 132.304 56.7859C132.299 56.7859 132.299 56.8015 132.299 56.8068C132.085 57.3384 131.887 57.9169 131.72 58.6362C131.517 59.4284 131.398 60.1633 131.325 60.8149C130.965 60.45 130.507 59.9497 130.028 59.319C128.465 57.2446 127.689 55.0972 127.454 53.8567C126.585 49.2127 128.585 44.3186 132.569 41.0871C134.658 39.143 136.533 37.8399 137.846 37.0216C141.341 34.8273 143.529 34.3374 145.409 31.8981C146.519 30.4596 147.029 28.9794 147.279 28.0047C148.383 31.2727 149.758 36.8392 148.982 43.6514Z" fill="#059A0D"/>
<path d="M168.17 75.8793C165.284 81.9264 160.156 84.8928 153.879 86.0461C150.68 86.6331 147.56 86.5968 144.507 85.3344C142.796 84.6227 138.63 82.4719 138.173 80.4302C140.185 89.3294 136.613 98.374 128.302 102.561C124.505 104.478 118.847 105.507 114.598 105.096C110.048 104.66 105.617 102.494 102.72 98.9195C99.6932 95.1894 98.3827 90.41 96.526 85.9838C95.2623 82.955 93.5045 80.1549 91.0966 77.9054C89.5832 76.4976 87.8982 76.1495 90.1449 74.8975C92.2771 73.713 94.7682 73.2454 97.0305 72.3675C102.881 70.1024 108.727 67.801 114.557 65.4788C114.609 65.5256 114.661 65.5775 114.713 65.6243C115.462 66.3308 117.942 68.6478 121.349 69.4063L100.042 77.6613L103.599 86.8202C107.276 96.4259 114.843 99.8338 124.297 96.1609C137.205 91.1684 136.243 79.786 133.253 70.97C133.232 70.8038 133.211 70.6375 133.196 70.4661C133.159 70.1544 133.123 69.8375 133.102 69.5154C133.086 69.3595 133.071 69.2037 133.06 69.0478C133.045 68.8452 133.029 68.6426 133.019 68.44C133.003 68.1802 132.988 67.9257 132.977 67.6815C132.962 67.4737 132.956 67.2659 132.951 67.0529C132.946 66.8607 132.941 66.6685 132.941 66.4711C132.936 66.284 132.936 66.097 132.936 65.91C133.003 66.9438 133.164 67.7854 133.347 68.4556C135.552 74.165 141.017 83.1421 153.01 78.534C161.451 75.2248 164.462 68.5751 161.003 59.7227L159.095 54.7822L132.951 64.9125C132.993 63.1462 133.159 61.7488 133.321 60.7565C133.861 61.1877 134.392 61.437 134.875 61.5825C137.855 62.4657 141.709 60.1227 144.767 55.9407C144.767 55.9407 145.636 54.9276 146.593 52.8704C147.024 52.7041 147.451 52.5327 147.877 52.3561C153.083 50.2365 157.332 45.8882 162.969 44.8076C162.782 44.844 164.358 51.582 164.571 52.2106C165.528 55.0263 166.906 57.6862 168.352 60.2733C170.905 64.8242 170.344 71.3181 168.17 75.8793Z" fill="url(#paint2_linear_120_80)"/>
<path d="M129.766 64.8851C129.73 65.0523 129.667 65.2091 129.584 65.3659C129.558 65.4181 129.527 65.4704 129.496 65.5226C129.351 65.439 129.2 65.3659 129.06 65.2979C129.019 65.277 128.982 65.2561 128.946 65.2405C128.863 65.1987 128.795 65.1673 128.738 65.1412C128.634 65.0942 128.577 65.068 128.577 65.068C128.281 64.9374 127.996 64.8329 127.736 64.7388C126.423 64.2424 124.107 63.5945 120.982 63.8767C121.917 64.0648 123.225 64.3678 124.751 64.8642C125.483 65.0994 127.279 65.6846 128.593 66.3796C128.66 66.4162 128.738 66.458 128.816 66.505C128.925 66.5625 129.05 66.6304 129.174 66.7088C129.216 66.8655 129.252 67.085 129.2 67.3358C128.894 68.8459 125.821 69.6088 123.77 69.6715C122.913 69.6976 122.093 69.6036 121.325 69.4259C117.924 68.663 115.448 66.3325 114.7 65.6219C114.648 65.5749 114.597 65.5226 114.545 65.4756C113.61 64.5768 112.738 63.5893 112.001 62.5128C111.892 62.3509 110.848 60.7519 110.563 60.2973C110.931 60.6944 112.167 60.8773 112.582 60.9244C113.781 61.0602 114.908 60.6422 116.05 60.3234C118.137 59.733 120.172 58.9544 122.368 58.9231C124.061 58.8969 125.769 59.3515 127.129 60.3809C127.186 60.4279 127.243 60.4698 127.3 60.5168C127.326 60.5325 127.352 60.5534 127.378 60.5743C128.484 61.4991 130.166 63.2496 129.771 64.8851H129.766Z" fill="#059A0D"/>
<path d="M140.131 44.8076C136.954 49.92 135.099 54.1889 134.073 57.6822C133.99 57.9581 133.912 58.2288 133.845 58.4943C133.798 58.6609 133.757 58.8275 133.715 58.9941C133.71 59.0097 133.705 59.0305 133.705 59.0462C133.669 59.1815 133.638 59.3169 133.607 59.4522C133.498 59.9 133.41 60.3373 133.332 60.759C133.342 60.7694 133.353 60.7746 133.363 60.785C133.202 61.7793 133.037 63.1798 132.995 64.9498C132.985 65.2674 132.98 65.6006 132.98 65.9494C132.98 66.1368 132.98 66.3242 132.985 66.5116C132.985 66.7095 132.99 66.9021 132.995 67.0947C133 67.3082 133.006 67.5164 133.021 67.7246C133.026 67.9797 133.042 68.2348 133.063 68.4847C133.073 68.6878 133.088 68.8908 133.104 69.0938C133.114 69.25 133.13 69.4062 133.145 69.5624C133.166 69.8852 133.202 70.2027 133.239 70.5151C133.254 70.6869 133.275 70.8535 133.296 71.0201C133.125 70.7337 132.964 70.4526 132.809 70.1663C132.809 70.1663 132.803 70.1559 132.798 70.1455C131.508 68.339 130.192 67.3186 129.269 66.7459C129.145 66.6678 129.021 66.6001 128.912 66.5429C128.834 66.496 128.756 66.4544 128.689 66.4179C127.378 65.7255 125.585 65.1424 124.855 64.9082C123.331 64.4136 122.025 64.1117 121.093 63.9242C124.212 63.6431 126.523 64.2887 127.834 64.7832C128.093 64.8769 128.378 64.9811 128.674 65.1112C128.674 65.1112 128.731 65.1372 128.834 65.1841C128.891 65.2101 128.959 65.2414 129.041 65.283C129.078 65.2986 129.114 65.3195 129.155 65.3403C129.746 65.6578 130.772 66.2774 131.648 67.2145C131.648 67.2145 131.648 67.204 131.648 67.1832C131.632 67.0322 131.549 66.3607 131.477 65.4444C131.363 64.1116 131.259 62.2635 131.363 60.7798C131.435 60.129 131.555 59.395 131.757 58.6036C131.928 57.9269 132.13 57.3125 132.332 56.7763C132.332 56.7711 132.332 56.7607 132.337 56.7555C132.985 54.9542 133.84 53.2674 134.741 51.7681C134.798 51.6692 134.861 51.5703 134.918 51.4766C136.643 48.5768 138.457 46.5204 139.633 45.3178C139.69 45.2553 139.742 45.2033 139.794 45.1512C139.84 45.1044 139.882 45.0575 139.923 45.0211L140.136 44.8076H140.131Z" fill="black"/>
<path d="M46.3608 134.083L45.5103 141.312H41.9058L44.194 126.428L50.2285 135.075L56.2833 126.428L58.5715 141.312H54.967L54.1165 134.083L50.2285 139.996L46.3608 134.083ZM62.8164 138.396C62.8164 138.639 62.8772 138.848 62.9987 139.024C63.1202 139.186 63.2822 139.314 63.4847 139.409C63.6872 139.49 63.9099 139.53 64.1529 139.53C64.5039 139.53 64.8279 139.456 65.1249 139.307C65.4219 139.159 65.6649 138.936 65.8539 138.639C66.0429 138.342 66.1374 137.978 66.1374 137.546L66.4614 138.761C66.4614 139.355 66.2994 139.861 65.9754 140.279C65.6514 140.684 65.2329 140.995 64.7199 141.211C64.2069 141.413 63.6534 141.515 63.0594 141.515C62.4654 141.515 61.9119 141.407 61.3989 141.191C60.8994 140.961 60.4944 140.624 60.1839 140.178C59.8869 139.733 59.7384 139.193 59.7384 138.558C59.7384 137.667 60.0557 136.965 60.6902 136.452C61.3247 135.926 62.2224 135.662 63.3834 135.662C63.9504 135.662 64.4567 135.716 64.9022 135.824C65.3612 135.932 65.7527 136.067 66.0767 136.229C66.4007 136.391 66.6437 136.56 66.8057 136.736V138.092C66.4817 137.849 66.1037 137.667 65.6717 137.546C65.2532 137.411 64.8077 137.343 64.3352 137.343C63.9707 137.343 63.6804 137.384 63.4644 137.465C63.2484 137.546 63.0864 137.667 62.9784 137.829C62.8704 137.978 62.8164 138.167 62.8164 138.396ZM61.4597 134.852L60.4269 132.807C60.9534 132.551 61.5879 132.308 62.3304 132.078C63.0729 131.849 63.8829 131.734 64.7604 131.734C65.5839 131.734 66.3197 131.855 66.9677 132.098C67.6157 132.328 68.1287 132.665 68.5067 133.111C68.8847 133.556 69.0737 134.103 69.0737 134.751V141.312H66.1374V135.44C66.1374 135.21 66.0969 135.014 66.0159 134.852C65.9484 134.677 65.8404 134.528 65.6919 134.407C65.5434 134.285 65.3544 134.198 65.1249 134.144C64.9089 134.09 64.6592 134.063 64.3757 134.063C63.9572 134.063 63.5454 134.11 63.1404 134.204C62.7489 134.299 62.4047 134.414 62.1077 134.549C61.8107 134.67 61.5947 134.771 61.4597 134.852ZM74.3805 131.997V141.312H71.3632V131.997H74.3805ZM77.0737 135.156C76.9117 134.994 76.7362 134.866 76.5472 134.771C76.3717 134.677 76.149 134.63 75.879 134.63C75.582 134.63 75.3187 134.711 75.0892 134.873C74.8597 135.035 74.6842 135.271 74.5627 135.581C74.4412 135.892 74.3805 136.27 74.3805 136.715L73.6515 135.642C73.6515 134.9 73.7932 134.238 74.0767 133.658C74.3737 133.077 74.7585 132.618 75.231 132.281C75.7035 131.943 76.1962 131.774 76.7092 131.774C77.0467 131.774 77.3707 131.842 77.6812 131.977C77.9917 132.112 78.228 132.301 78.39 132.544L77.0737 135.156ZM78.5952 131.997H84.8322V134.528H78.5952V131.997ZM80.2354 128.757H83.1717V141.312H80.2354V128.757ZM86.6417 137.93C87.1142 138.322 87.5394 138.632 87.9174 138.862C88.3089 139.078 88.6532 139.233 88.9502 139.328C89.2472 139.409 89.5037 139.449 89.7197 139.449C90.0302 139.449 90.2597 139.382 90.4082 139.247C90.5567 139.112 90.6309 138.936 90.6309 138.72C90.6309 138.518 90.5702 138.349 90.4487 138.214C90.3272 138.065 90.1179 137.924 89.8209 137.789C89.5374 137.654 89.1459 137.512 88.6464 137.363C88.2009 137.201 87.7757 137.012 87.3707 136.796C86.9792 136.567 86.6552 136.263 86.3987 135.885C86.1422 135.507 86.0139 135.021 86.0139 134.427C86.0139 133.86 86.1624 133.381 86.4594 132.989C86.7699 132.598 87.1817 132.301 87.6947 132.098C88.2212 131.896 88.8219 131.795 89.4969 131.795C90.0369 131.795 90.5364 131.855 90.9954 131.977C91.4679 132.098 91.9067 132.26 92.3117 132.463C92.7302 132.665 93.1217 132.902 93.4862 133.172L92.3927 135.156C92.0012 134.792 91.5557 134.495 91.0562 134.265C90.5567 134.022 90.0977 133.901 89.6792 133.901C89.3957 133.901 89.1797 133.955 89.0312 134.063C88.8962 134.171 88.8287 134.312 88.8287 134.488C88.8287 134.69 88.9097 134.859 89.0717 134.994C89.2472 135.129 89.4902 135.257 89.8007 135.379C90.1247 135.487 90.5162 135.629 90.9752 135.804C91.4612 135.98 91.9067 136.182 92.3117 136.412C92.7302 136.641 93.0609 136.931 93.3039 137.282C93.5604 137.633 93.6887 138.099 93.6887 138.68C93.6887 139.679 93.3782 140.435 92.7572 140.948C92.1497 141.447 91.2924 141.697 90.1854 141.697C89.5104 141.697 88.8827 141.616 88.3022 141.454C87.7352 141.305 87.2087 141.103 86.7227 140.846C86.2367 140.576 85.7844 140.279 85.3659 139.955L86.6417 137.93Z" fill="url(#paint3_linear_120_80)"/>
<defs>
<linearGradient id="paint0_linear_120_80" x1="81.2434" y1="79.7433" x2="153.98" y2="108.668" gradientUnits="userSpaceOnUse">
<stop stop-color="#FFC63A"/>
<stop offset="1" stop-color="#FFE57B"/>
</linearGradient>
<linearGradient id="paint1_linear_120_80" x1="35.73" y1="53.7964" x2="27.2229" y2="139.293" gradientUnits="userSpaceOnUse">
<stop stop-color="#FFC63A"/>
<stop offset="1" stop-color="#FFE57B"/>
</linearGradient>
<linearGradient id="paint2_linear_120_80" x1="129.55" y1="44.8076" x2="129.55" y2="105.186" gradientUnits="userSpaceOnUse">
<stop stop-color="#DB2730"/>
<stop offset="1" stop-color="#D40B0B"/>
</linearGradient>
<linearGradient id="paint3_linear_120_80" x1="67.7592" y1="133.802" x2="68.3809" y2="158.948" gradientUnits="userSpaceOnUse">
<stop stop-color="#FFC63A"/>
<stop offset="1" stop-color="#FFE57B"/>
</linearGradient>
</defs>
</svg>
