<svg width="17" height="16" viewBox="0 0 17 16" fill="none" xmlns="http://www.w3.org/2000/svg">
<path d="M8.49706 0.11792C6.96542 0.11792 5.46817 0.572105 4.19465 1.42304C2.92114 2.27398 1.92855 3.48344 1.34242 4.8985C0.756285 6.31355 0.602926 7.87064 0.901734 9.37285C1.20054 10.8751 1.9381 12.2549 3.02114 13.338C4.10417 14.421 5.48404 15.1586 6.98626 15.4574C8.48847 15.7562 10.0456 15.6028 11.4606 15.0167C12.8757 14.4306 14.0851 13.438 14.9361 12.1645C15.787 10.8909 16.2412 9.39369 16.2412 7.86205C16.2412 6.84508 16.0409 5.83806 15.6517 4.8985C15.2625 3.95894 14.6921 3.10523 13.973 2.38612C13.2539 1.66701 12.4002 1.09659 11.4606 0.707407C10.5211 0.318228 9.51404 0.11792 8.49706 0.11792ZM8.49706 14.0574C7.27175 14.0574 6.07395 13.694 5.05514 13.0133C4.03632 12.3325 3.24226 11.3649 2.77335 10.2329C2.30444 9.10084 2.18175 7.85518 2.4208 6.65341C2.65985 5.45163 3.24989 4.34774 4.11632 3.48131C4.98275 2.61488 6.08665 2.02483 7.28842 1.78579C8.49019 1.54674 9.73586 1.66943 10.8679 2.13834C11.9999 2.60724 12.9675 3.40131 13.6483 4.42012C14.329 5.43893 14.6924 6.63673 14.6924 7.86205C14.6924 9.50515 14.0396 11.0809 12.8778 12.2428C11.716 13.4046 10.1402 14.0574 8.49706 14.0574Z" fill="#181725"/>
<path d="M8.49682 11.7341C8.92452 11.7341 9.27124 11.3874 9.27124 10.9597C9.27124 10.532 8.92452 10.1853 8.49682 10.1853C8.06913 10.1853 7.72241 10.532 7.72241 10.9597C7.72241 11.3874 8.06913 11.7341 8.49682 11.7341Z" fill="#181725"/>
<path d="M8.49682 3.98999C8.29144 3.98999 8.09446 4.07158 7.94923 4.21681C7.804 4.36204 7.72241 4.55902 7.72241 4.7644V8.63647C7.72241 8.84186 7.804 9.03883 7.94923 9.18406C8.09446 9.32929 8.29144 9.41088 8.49682 9.41088C8.70221 9.41088 8.89919 9.32929 9.04442 9.18406C9.18965 9.03883 9.27124 8.84186 9.27124 8.63647V4.7644C9.27124 4.55902 9.18965 4.36204 9.04442 4.21681C8.89919 4.07158 8.70221 3.98999 8.49682 3.98999Z" fill="#181725"/>
</svg>
