<svg width="19" height="18" viewBox="0 0 19 18" fill="none" xmlns="http://www.w3.org/2000/svg">
<path d="M11.3092 1.04929C11.53 0.837532 11.8879 0.838011 12.1086 1.04997L13.7933 2.66815C14.0138 2.88008 14.0137 3.22326 13.7933 3.4353C13.317 3.89281 13.317 4.63787 13.7933 5.09542C14.2696 5.55296 15.0453 5.55294 15.5216 5.09542C15.7422 4.88375 16.0996 4.88373 16.3203 5.09542L18.0056 6.71428C18.2261 6.92622 18.226 7.26943 18.0056 7.48142L7.68565 17.3941C7.46499 17.6061 7.10705 17.6067 6.88628 17.3948L5.20091 15.776C4.98044 15.5639 4.98099 15.2201 5.20162 15.0081C5.67764 14.5506 5.67715 13.8061 5.20091 13.3487C4.72467 12.8913 3.9496 12.8908 3.47329 13.348C3.25259 13.56 2.89468 13.5606 2.67392 13.3487L0.989252 11.7305C0.768499 11.5185 0.768528 11.174 0.989252 10.962L11.3092 1.04929ZM3.12325 12.2446C4.02734 11.7211 5.22075 11.8322 6.00028 12.5809C6.77974 13.3296 6.8945 14.4752 6.34961 15.3437L7.28561 16.2427L9.54005 14.0773L8.67588 13.2472C8.45549 13.0352 8.45597 12.6913 8.67659 12.4794C8.89722 12.2677 9.25455 12.2677 9.47525 12.4794L10.3394 13.3094L16.8062 7.09785L15.8702 6.19879C14.9661 6.72209 13.7733 6.6119 12.9939 5.86324C12.2145 5.11451 12.0989 3.96816 12.6439 3.09975L11.7086 2.20136L5.24176 8.41296L6.10593 9.24302C6.32644 9.45497 6.32637 9.79818 6.10593 10.0102C5.88525 10.2221 5.52732 10.2228 5.30656 10.0108L4.44239 9.18079L2.18796 11.3463L3.12325 12.2446Z" fill="#181725" stroke="#181725" stroke-width="0.232324"/>
</svg>
