<svg width="17" height="18" viewBox="0 0 17 18" fill="none" xmlns="http://www.w3.org/2000/svg">
<path d="M3.85058 1.06885L1.52734 4.1665V15.0083C1.52734 15.4191 1.69052 15.813 1.98098 16.1035C2.27145 16.3939 2.6654 16.5571 3.07617 16.5571H13.9179C14.3287 16.5571 14.7227 16.3939 15.0131 16.1035C15.3036 15.813 15.4668 15.4191 15.4668 15.0083V4.1665L13.1435 1.06885H3.85058Z" stroke="#181725" stroke-width="1.54883" stroke-linecap="round" stroke-linejoin="round"/>
<path d="M1.5271 4.16644H15.4665" stroke="#181725" stroke-width="1.54883" stroke-linecap="round" stroke-linejoin="round"/>
<path d="M11.5945 7.2641C11.5945 8.08565 11.2681 8.87355 10.6872 9.45447C10.1063 10.0354 9.31837 10.3618 8.49682 10.3618C7.67527 10.3618 6.88737 10.0354 6.30645 9.45447C5.72553 8.87355 5.39917 8.08565 5.39917 7.2641" stroke="#181725" stroke-width="1.54883" stroke-linecap="round" stroke-linejoin="round"/>
</svg>
