<svg width="16" height="16" viewBox="0 0 16 16" fill="none" xmlns="http://www.w3.org/2000/svg">
<g clip-path="url(#clip0_531_21)">
<path d="M5.16775 1.88136C4.24565 2.13532 3.32986 2.41164 2.42118 2.71007C2.33814 2.73685 2.26432 2.78647 2.20816 2.85324C2.15201 2.92001 2.11578 3.00125 2.10363 3.08764C1.56729 7.11214 2.80649 10.0485 4.28482 11.9828C4.91045 12.8102 5.65681 13.5389 6.49892 14.1446C6.83389 14.3808 7.13014 14.5512 7.36346 14.6606C7.47963 14.7155 7.57418 14.7535 7.64712 14.7748C7.67927 14.7846 7.71191 14.7927 7.7449 14.7991C7.77756 14.7927 7.80988 14.7846 7.84171 14.7748C7.91529 14.7529 8.01016 14.7148 8.12634 14.6606C8.35869 14.5512 8.6559 14.3799 8.99087 14.1446C9.83298 13.5389 10.5793 12.8102 11.205 11.9828C12.6833 10.0494 13.9225 7.11214 13.3862 3.08764C13.374 3.00125 13.3378 2.92001 13.2816 2.85324C13.2255 2.78647 13.1517 2.73685 13.0686 2.71007C12.4384 2.50386 11.3744 2.16792 10.322 1.88233C9.24743 1.59092 8.25897 1.37503 7.7449 1.37503C7.23179 1.37503 6.24237 1.58995 5.16775 1.88136ZM4.91023 0.884191C5.96064 0.598594 7.07689 0.342041 7.7449 0.342041C8.4129 0.342041 9.52915 0.598594 10.5796 0.884191C11.6542 1.17463 12.7375 1.51831 13.3745 1.72646C13.6409 1.81442 13.877 1.97572 14.0558 2.19184C14.2346 2.40796 14.3488 2.67013 14.3853 2.94823C14.9623 7.28253 13.6234 10.4948 11.9988 12.6198C11.3097 13.5286 10.4883 14.3291 9.56207 14.9946C9.24213 15.2255 8.90264 15.4279 8.54747 15.5997C8.2764 15.7275 7.98499 15.832 7.7449 15.832C7.5048 15.832 7.21437 15.7275 6.94232 15.5997C6.58716 15.4279 6.24767 15.2255 5.92773 14.9946C5.00147 14.3291 4.18011 13.5286 3.49096 12.6198C1.86644 10.4948 0.527526 7.28253 1.10453 2.94823C1.14101 2.67013 1.25521 2.40796 1.434 2.19184C1.61279 1.97572 1.84891 1.81442 2.11525 1.72646C3.04006 1.42345 3.97198 1.14261 4.91023 0.884191Z" fill="black"/>
<path d="M9.1971 6.63484C9.19726 6.93527 9.10423 7.22836 8.93084 7.47371C8.75745 7.71906 8.51223 7.90459 8.22897 8.00473L8.6017 9.9313C8.61526 10.0014 8.61316 10.0736 8.59555 10.1427C8.57793 10.2119 8.54524 10.2763 8.49981 10.3314C8.45439 10.3864 8.39735 10.4307 8.33278 10.4612C8.26822 10.4916 8.19773 10.5074 8.12635 10.5073H7.36347C7.29218 10.5072 7.2218 10.4913 7.15735 10.4609C7.09291 10.4304 7.03599 10.386 6.99067 10.331C6.94535 10.276 6.91275 10.2116 6.89519 10.1425C6.87763 10.0734 6.87554 10.0013 6.88909 9.9313L7.26085 8.00473C7.00987 7.916 6.78812 7.75999 6.61981 7.55375C6.45151 7.3475 6.34313 7.09897 6.30652 6.8353C6.26991 6.57162 6.30649 6.30296 6.41224 6.05867C6.518 5.81438 6.68887 5.60386 6.90618 5.45011C7.12349 5.29636 7.37888 5.20531 7.64445 5.18689C7.91001 5.16847 8.17552 5.22341 8.41198 5.34569C8.64843 5.46797 8.84672 5.65289 8.98519 5.88024C9.12365 6.1076 9.19696 6.36864 9.1971 6.63484Z" fill="black"/>
</g>
<defs>
<clipPath id="clip0_531_21">
<rect width="15.49" height="15.49" fill="white" transform="translate(0 0.342041)"/>
</clipPath>
</defs>
</svg>
