<svg width="16" height="17" viewBox="0 0 16 17" fill="none" xmlns="http://www.w3.org/2000/svg">
<g clip-path="url(#clip0_531_29)">
<path fill-rule="evenodd" clip-rule="evenodd" d="M8.00005 3.22095C9.08069 3.22136 10.1321 3.57188 10.9968 4.21999C11.8616 4.8681 12.493 5.77892 12.7967 6.81603C13.1003 7.85313 13.0598 8.9607 12.6812 9.97284C12.3025 10.985 11.6062 11.8472 10.6964 12.4304C9.7866 13.0136 8.71237 13.2863 7.63459 13.2077C6.5568 13.1291 5.53348 12.7035 4.71789 11.9946C3.90231 11.2856 3.33836 10.3315 3.11052 9.27514C2.88268 8.21879 3.0032 7.11705 3.45405 6.13495C3.50312 6.01554 3.50411 5.88179 3.4568 5.76167C3.4095 5.64155 3.31757 5.54439 3.20025 5.49051C3.08294 5.43664 2.94933 5.43022 2.82739 5.47261C2.70546 5.515 2.60464 5.60292 2.54605 5.71795C2.00506 6.89654 1.86048 8.21868 2.13398 9.48633C2.40747 10.754 3.08432 11.8989 4.06312 12.7496C5.04193 13.6003 6.27001 14.111 7.56341 14.2051C8.8568 14.2993 10.1459 13.9718 11.2376 13.2719C12.3293 12.5719 13.1648 11.5371 13.619 10.3224C14.0732 9.10771 14.1216 7.77857 13.757 6.53406C13.3924 5.28955 12.6344 4.19666 11.5966 3.4191C10.5587 2.64154 9.29687 2.22117 8.00005 2.22095V3.22095Z" fill="black"/>
<path d="M8.00002 4.68697V0.754972C8.00001 0.707469 7.98645 0.660954 7.96096 0.620873C7.93546 0.580793 7.89907 0.548808 7.85605 0.528662C7.81303 0.508516 7.76516 0.501043 7.71805 0.50712C7.67093 0.513196 7.62652 0.53257 7.59002 0.562972L5.23002 2.52897C5.20189 2.55243 5.17925 2.58179 5.16372 2.61497C5.14819 2.64815 5.14014 2.68434 5.14014 2.72097C5.14014 2.75761 5.14819 2.79379 5.16372 2.82697C5.17925 2.86015 5.20189 2.88951 5.23002 2.91297L7.59002 4.87897C7.62652 4.90937 7.67093 4.92875 7.71805 4.93482C7.76516 4.9409 7.81303 4.93343 7.85605 4.91328C7.89907 4.89314 7.93546 4.86115 7.96096 4.82107C7.98645 4.78099 8.00001 4.73448 8.00002 4.68697Z" fill="black"/>
</g>
<defs>
<clipPath id="clip0_531_29">
<rect width="16" height="16" fill="white" transform="translate(0 0.220947)"/>
</clipPath>
</defs>
</svg>
