<svg width="10" height="9" viewBox="0 0 10 9" fill="none" xmlns="http://www.w3.org/2000/svg">
<path d="M9.5 6.71V8.47805C9.5 8.74055 9.29705 8.95835 9.03525 8.97685C8.81655 8.9923 8.63815 9 8.5 9C4.0817 9 0.5 5.4183 0.5 1C0.5 0.861855 0.507725 0.683435 0.523175 0.46475C0.541685 0.20294 0.75947 0 1.02193 0H2.79005C2.91839 0 3.02588 0.09721 3.03876 0.2249C3.05033 0.339535 3.06109 0.43157 3.07103 0.50101C3.17217 1.20736 3.37876 1.87968 3.67435 2.50151C3.72179 2.60132 3.69086 2.72079 3.60092 2.78503L2.52178 3.5559C3.17876 5.09055 4.40945 6.32125 5.9441 6.97825L6.71355 5.90095C6.7786 5.80995 6.8995 5.77865 7.0005 5.8266C7.6223 6.12195 8.29455 6.3283 9.0008 6.4292C9.0698 6.4391 9.16125 6.44975 9.2751 6.46125C9.4028 6.47415 9.5 6.58165 9.5 6.71Z" fill="#FFC63A"/>
</svg>
