<svg width="10" height="12" viewBox="0 0 10 12" fill="none" xmlns="http://www.w3.org/2000/svg">
<path d="M4.69455 4.69455L2.75 6.6391L0.805455 4.69455C-0.268485 3.6206 -0.268485 1.8794 0.805455 0.805455C1.8794 -0.268485 3.6206 -0.268485 4.69455 0.805455C5.7685 1.8794 5.7685 3.6206 4.69455 4.69455ZM2.75 3.75C3.30228 3.75 3.75 3.30229 3.75 2.75C3.75 2.19772 3.30228 1.75 2.75 1.75C2.19772 1.75 1.75 2.19772 1.75 2.75C1.75 3.30229 2.19772 3.75 2.75 3.75ZM9.19455 9.19455L7.25 11.1391L5.30545 9.19455C4.2315 8.1206 4.2315 6.3794 5.30545 5.30545C6.3794 4.23152 8.1206 4.23152 9.19455 5.30545C10.2685 6.3794 10.2685 8.1206 9.19455 9.19455ZM7.25 8.25C7.8023 8.25 8.25 7.8023 8.25 7.25C8.25 6.6977 7.8023 6.25 7.25 6.25C6.6977 6.25 6.25 6.6977 6.25 7.25C6.25 7.8023 6.6977 8.25 7.25 8.25Z" fill="#FFC63A"/>
</svg>
