<svg width="11" height="13" viewBox="0 0 11 13" fill="none" xmlns="http://www.w3.org/2000/svg">
<path d="M5.20906 6.78125C7.55978 6.78125 9.84524 8.44548 10.3692 11.6152L10.4141 11.9268L10.4171 12.0303C10.3987 12.2663 10.2167 12.4644 9.97273 12.4951C9.72874 12.5255 9.50279 12.3784 9.42683 12.1543L9.40437 12.0537L9.3653 11.7861C8.91999 9.07535 7.03186 7.7998 5.20906 7.7998C3.32747 7.80002 1.37649 9.1596 1.01472 12.0537L0.991282 12.1543C0.91529 12.3784 0.690278 12.5254 0.44636 12.4951C0.167445 12.4601 -0.0308956 12.2057 0.0039772 11.9268L0.0488991 11.6152C0.572794 8.44559 2.85845 6.78146 5.20906 6.78125ZM5.20906 0.500977C6.79521 0.501087 8.08101 1.7869 8.08113 3.37305C8.08113 4.95929 6.79528 6.24501 5.20906 6.24512C3.62284 6.245 2.33699 4.95929 2.33699 3.37305C2.3371 1.7869 3.6229 0.501089 5.20906 0.500977ZM5.20906 1.51953C4.18544 1.51964 3.35565 2.34944 3.35554 3.37305C3.35554 4.39675 4.18537 5.22645 5.20906 5.22656C6.23274 5.22645 7.06257 4.39675 7.06257 3.37305C7.06246 2.34943 6.23267 1.51964 5.20906 1.51953Z" fill="#FFC63A"/>
</svg>
