<svg width="12" height="13" viewBox="0 0 12 13" fill="none" xmlns="http://www.w3.org/2000/svg">
<g clip-path="url(#clip0_120_118)">
<path d="M1.5 2C1.10218 2 0.720644 2.15804 0.43934 2.43934C0.158035 2.72064 0 3.10218 0 3.5L0 9.5075C0.00198264 9.90402 0.160893 10.2836 0.441983 10.5633C0.723073 10.843 1.10347 11 1.5 11H5.625C5.72446 11 5.81984 10.9605 5.89016 10.8902C5.96049 10.8198 6 10.7245 6 10.625C6 10.5255 5.96049 10.4302 5.89016 10.3598C5.81984 10.2895 5.72446 10.25 5.625 10.25H1.5C1.33491 10.25 1.17442 10.1956 1.04343 10.0951C0.912437 9.9946 0.818259 9.85371 0.7755 9.69425L5.0055 7.091L6 7.68725L11.25 4.53725V6.875C11.25 6.97446 11.2895 7.06984 11.3598 7.14017C11.4302 7.21049 11.5255 7.25 11.625 7.25C11.7245 7.25 11.8198 7.21049 11.8902 7.14017C11.9605 7.06984 12 6.97446 12 6.875V3.5C12 3.10218 11.842 2.72064 11.5607 2.43934C11.2794 2.15804 10.8978 2 10.5 2H1.5ZM4.281 6.656L0.75 8.82875V4.53725L4.281 6.656ZM0.75 3.66275V3.5C0.75 3.30109 0.829018 3.11032 0.96967 2.96967C1.11032 2.82902 1.30109 2.75 1.5 2.75H10.5C10.6989 2.75 10.8897 2.82902 11.0303 2.96967C11.171 3.11032 11.25 3.30109 11.25 3.5V3.66275L6 6.81275L0.75 3.66275Z" fill="#FFC63A"/>
<path d="M10.6852 11.2018C11.4427 11.2018 11.8755 10.559 11.8755 9.683V9.5255C11.8755 8.3225 10.98 7.25 9.39 7.25H9.36375C7.815 7.25 6.75 8.27 6.75 9.824V9.9845C6.75 11.615 7.8285 12.5 9.2685 12.5H9.3015C9.747 12.5 10.065 12.4445 10.2292 12.3687V11.8212C10.0455 11.9038 9.7245 11.9562 9.34425 11.9562H9.31125C8.31075 11.9562 7.383 11.3653 7.383 9.965V9.84725C7.383 8.6045 8.1765 7.80425 9.363 7.80425H9.393C10.5443 7.80425 11.256 8.59175 11.256 9.54875V9.63725C11.256 10.3685 11.013 10.6797 10.7768 10.6797C10.6028 10.6797 10.4692 10.5687 10.4692 10.3647V8.72225H9.78975V9.149H9.76725C9.70425 8.9255 9.49125 8.6765 9.05175 8.6765C8.46825 8.6765 8.1075 9.09275 8.1075 9.7265V10.1225C8.1075 10.7915 8.475 11.198 9.0525 11.198C9.40575 11.198 9.7245 11.0278 9.813 10.7158H9.84525C9.93375 11.0308 10.308 11.2018 10.6852 11.2018ZM8.8455 10.0107V9.8405C8.8455 9.431 9.01575 9.24725 9.27525 9.24725C9.498 9.24725 9.70425 9.39125 9.70425 9.77825V10.0535C9.70425 10.4832 9.5145 10.6115 9.28125 10.6115C9.01575 10.6115 8.8455 10.4503 8.8455 10.0115V10.0107Z" fill="#FFC63A"/>
</g>
<defs>
<clipPath id="clip0_120_118">
<rect width="12" height="12" fill="white" transform="translate(0 0.5)"/>
</clipPath>
</defs>
</svg>
