<svg width="15" height="19" viewBox="0 0 15 19" fill="none" xmlns="http://www.w3.org/2000/svg">
<path fill-rule="evenodd" clip-rule="evenodd" d="M0.987793 8.19852C1.00001 4.57286 3.92413 1.64367 7.51901 1.65598C11.1139 1.6683 14.0182 4.61747 14.006 8.24312V8.31747C13.9618 10.6743 12.657 12.8526 11.0574 14.5552C10.1425 15.5133 9.12093 16.3615 8.0129 17.083C7.71663 17.3414 7.27716 17.3414 6.98088 17.083C5.32908 15.9986 3.87935 14.6296 2.698 13.0385C1.64508 11.651 1.04727 9.967 0.987793 8.22082L0.987793 8.19852Z" stroke="#181725" stroke-width="1.54883" stroke-linecap="round" stroke-linejoin="round"/>
<path fill-rule="evenodd" clip-rule="evenodd" d="M7.49689 10.1536C8.49834 10.1536 9.31018 9.33476 9.31018 8.32473C9.31018 7.3147 8.49834 6.49591 7.49689 6.49591C6.49543 6.49591 5.68359 7.3147 5.68359 8.32473C5.68359 9.33476 6.49543 10.1536 7.49689 10.1536Z" stroke="#181725" stroke-width="1.54883" stroke-linecap="round" stroke-linejoin="round"/>
</svg>
