<svg width="10" height="13" viewBox="0 0 10 13" fill="none" xmlns="http://www.w3.org/2000/svg">
<path fill-rule="evenodd" clip-rule="evenodd" d="M5 0.5C5.79565 0.5 6.55871 0.816071 7.12132 1.37868C7.68393 1.94129 8 2.70435 8 3.5V5.0375C8.42351 5.12395 8.80415 5.35407 9.07749 5.68891C9.35083 6.02375 9.50009 6.44276 9.5 6.875V10.625C9.5 11.1223 9.30246 11.5992 8.95082 11.9508C8.59919 12.3025 8.12228 12.5 7.625 12.5H2.375C1.87772 12.5 1.40081 12.3025 1.04917 11.9508C0.697544 11.5992 0.5 11.1223 0.5 10.625V6.875C0.499912 6.44276 0.649169 6.02375 0.92251 5.68891C1.19585 5.35407 1.57649 5.12395 2 5.0375V3.5C2 2.70435 2.31607 1.94129 2.87868 1.37868C3.44129 0.816071 4.20435 0.5 5 0.5ZM2.375 5.75C2.07663 5.75 1.79048 5.86853 1.5795 6.0795C1.36853 6.29048 1.25 6.57663 1.25 6.875V10.625C1.25 10.9234 1.36853 11.2095 1.5795 11.4205C1.79048 11.6315 2.07663 11.75 2.375 11.75H7.625C7.92337 11.75 8.20952 11.6315 8.4205 11.4205C8.63147 11.2095 8.75 10.9234 8.75 10.625V6.875C8.75 6.57663 8.63147 6.29048 8.4205 6.0795C8.20952 5.86853 7.92337 5.75 7.625 5.75H2.375ZM5 1.25C4.40326 1.25 3.83097 1.48705 3.40901 1.90901C2.98705 2.33097 2.75 2.90326 2.75 3.5V5H7.25V3.5C7.25 2.90326 7.01295 2.33097 6.59099 1.90901C6.16903 1.48705 5.59674 1.25 5 1.25Z" fill="#FFC63A"/>
</svg>
