<svg width="13" height="9" viewBox="0 0 13 9" fill="none" xmlns="http://www.w3.org/2000/svg">
<path fill-rule="evenodd" clip-rule="evenodd" d="M0.041748 4.32227C0.041748 4.20402 0.0887196 4.09063 0.17233 4.00702C0.25594 3.92341 0.369339 3.87643 0.487581 3.87643H11.003L8.19693 1.07125C8.11322 0.987535 8.06618 0.873992 8.06618 0.755601C8.06618 0.637209 8.11322 0.523666 8.19693 0.43995C8.28065 0.356235 8.39419 0.309204 8.51258 0.309204C8.63097 0.309204 8.74452 0.356235 8.82823 0.43995L12.3949 4.00662C12.4364 4.04803 12.4694 4.09723 12.4918 4.15139C12.5143 4.20556 12.5259 4.26362 12.5259 4.32227C12.5259 4.38091 12.5143 4.43898 12.4918 4.49314C12.4694 4.5473 12.4364 4.5965 12.3949 4.63792L8.82823 8.20458C8.74452 8.2883 8.63097 8.33533 8.51258 8.33533C8.39419 8.33533 8.28065 8.2883 8.19693 8.20458C8.11322 8.12087 8.06618 8.00733 8.06618 7.88893C8.06618 7.77054 8.11322 7.657 8.19693 7.57328L11.003 4.7681H0.487581C0.369339 4.7681 0.25594 4.72113 0.17233 4.63752C0.0887196 4.55391 0.041748 4.44051 0.041748 4.32227Z" fill="black"/>
</svg>
