<svg width="22" height="22" viewBox="0 0 22 22" fill="none" xmlns="http://www.w3.org/2000/svg">
<path d="M7.74868 17.4909L7.78557 18.0074C7.86176 19.074 7.89985 19.6073 8.1353 20.0097C8.3331 20.3478 8.62581 20.6204 8.97712 20.7936C9.3953 20.9998 9.92997 20.9998 10.9993 20.9998C12.0687 20.9998 12.6033 20.9998 13.0215 20.7936C13.3728 20.6204 13.6655 20.3478 13.8633 20.0097C14.0988 19.6073 14.1369 19.074 14.2131 18.0074L14.2499 17.4909C14.3847 15.6044 12.8906 13.9998 10.9993 13.9998C9.10802 13.9998 7.61393 15.6044 7.74868 17.4909Z" stroke="black" stroke-width="1.5"/>
<path d="M1.35139 12.2135C0.998371 9.91624 0.821861 8.76763 1.25617 7.74938C1.69047 6.73112 2.65403 6.03443 4.58114 4.64106L6.02099 3.6C8.41829 1.86667 9.61694 1 11 1C12.3831 1 13.5817 1.86667 15.979 3.6L17.4189 4.64106C19.346 6.03443 20.3095 6.73112 20.7438 7.74938C21.1781 8.76763 21.0016 9.91624 20.6486 12.2135L20.3476 14.1724C19.8471 17.4289 19.5969 19.0572 18.429 20.0286C17.2611 21 15.5537 21 12.1388 21H9.86119C6.44633 21 4.73891 21 3.571 20.0286C2.40309 19.0572 2.15287 17.4289 1.65243 14.1724L1.35139 12.2135Z" stroke="black" stroke-width="1.5" stroke-linejoin="round"/>
</svg>
