<svg width="19" height="19" viewBox="0 0 19 19" fill="none" xmlns="http://www.w3.org/2000/svg">
<rect x="0.5" y="0.64859" width="18" height="18" rx="9" fill="#FFE9B2"/>
<path d="M9.49977 12.7413C11.7338 12.7413 13.6873 13.6961 14.75 15.1204L13.6264 15.6486C12.7616 14.63 11.2367 13.9537 9.49977 13.9537C7.76288 13.9537 6.23793 14.63 5.37313 15.6486L4.25 15.1199C5.31273 13.6959 7.26603 12.7413 9.49977 12.7413ZM9.49977 3.64859C11.1842 3.64859 12.5497 5.00558 12.5497 6.67951V8.49805C12.5497 10.172 11.1842 11.529 9.49977 11.529C7.81533 11.529 6.44983 10.172 6.44983 8.49805V6.67951C6.44983 5.00558 7.81533 3.64859 9.49977 3.64859Z" fill="black"/>
</svg>
