<svg width="20" height="20" viewBox="0 0 20 20" fill="none" xmlns="http://www.w3.org/2000/svg">
<g clip-path="url(#clip0_30_2605)">
<path d="M9.77733 17.6612C5.50037 17.6612 2.0332 14.194 2.0332 9.9171C2.0332 5.64014 5.50037 2.17297 9.77733 2.17297C12.3107 2.17297 14.5599 3.38941 15.9728 5.27003L13.8747 5.27009C12.7826 4.30647 11.3482 3.7218 9.77733 3.7218C6.35576 3.7218 3.58203 6.49553 3.58203 9.9171C3.58203 13.3387 6.35576 16.1124 9.77733 16.1124C11.3486 16.1124 12.7833 15.5274 13.8754 14.5634H15.9733C14.5605 16.4445 12.311 17.6612 9.77733 17.6612ZM15.1982 13.0148V10.6915H9.00292V9.14269H15.1982V6.81945L19.0703 9.9171L15.1982 13.0148Z" fill="black"/>
</g>
<defs>
<clipPath id="clip0_30_2605">
<rect width="18.5859" height="18.5859" fill="white" transform="translate(0.484131 0.624207)"/>
</clipPath>
</defs>
</svg>
