<svg width="8" height="9" viewBox="0 0 8 9" fill="none" xmlns="http://www.w3.org/2000/svg">
<path d="M1.79191 2.70731C2.34836 2.26219 3.05418 1.99602 3.82217 1.99602C4.59016 1.99602 5.29599 2.26219 5.85245 2.70731L6.37771 2.18205L6.88881 2.69315L6.36355 3.21841C6.80865 3.77486 7.07483 4.48069 7.07483 5.24868C7.07483 7.04508 5.61858 8.50133 3.82217 8.50133C2.02578 8.50133 0.569519 7.04508 0.569519 5.24868C0.569519 4.48069 0.835684 3.77486 1.2808 3.21841L0.755542 2.69315L1.26665 2.18205L1.79191 2.70731ZM4.18358 4.88727V3.25921L2.37655 5.61008H3.46077V7.23641L5.2678 4.88727H4.18358ZM2.37655 0.911804H5.2678V1.63462H2.37655V0.911804Z" fill="#D00000"/>
</svg>
